# xmcd
# 
# Track frame offsets:
#     150
#     20426
#     40629
# 
# Disc length: 811
# 
# Revision: 7
# Processed by: cddbd v1.5.2PL0 Copyright (c) Steve Scherf et al.
# Submitted via: fre:ac v1.0.31
# 
DISCID=17032903
DTITLE=Eminem - My Name Is [CDS)
DYEAR=1999
DGENRE=Hip Hop
TTITLE0=My Name Is (Slim Shady Radio Edit)
TTITLE1=My Name Is (Explicit Version)
TTITLE2=My Name Is (Instrumental)
EXTD=
EXTT0=
EXTT1=
EXTT2=
PLAYORDER=
